<mxfile host="app.diagrams.net" agent="Mozilla/5.0 (X11; Linux x86_64) AppleWebKit/537.36 (KHTML, like Gecko) Chrome/128.0.0.0 Safari/537.36" version="24.7.7">
  <diagram name="Page-1" id="qj6_hbagFO5WuVzdhgSA">
    <mxGraphModel dx="1364" dy="793" grid="1" gridSize="10" guides="1" tooltips="1" connect="1" arrows="1" fold="1" page="1" pageScale="1" pageWidth="850" pageHeight="1100" math="0" shadow="0">
      <root>
        <mxCell id="0" />
        <mxCell id="1" parent="0" />
        <mxCell id="2cb-5EpplbYAGcAZyKXE-6" style="edgeStyle=orthogonalEdgeStyle;rounded=0;orthogonalLoop=1;jettySize=auto;html=1;fontSize=14;strokeWidth=3;fontStyle=1" edge="1" parent="1" source="2cb-5EpplbYAGcAZyKXE-1" target="2cb-5EpplbYAGcAZyKXE-5">
          <mxGeometry relative="1" as="geometry" />
        </mxCell>
        <mxCell id="2cb-5EpplbYAGcAZyKXE-1" value="Codeforces" style="shape=cylinder3;whiteSpace=wrap;html=1;boundedLbl=1;backgroundOutline=1;size=15;fontSize=14;strokeWidth=3;fontStyle=1" vertex="1" parent="1">
          <mxGeometry x="80" y="80" width="120" height="120" as="geometry" />
        </mxCell>
        <mxCell id="2cb-5EpplbYAGcAZyKXE-7" style="edgeStyle=orthogonalEdgeStyle;rounded=0;orthogonalLoop=1;jettySize=auto;html=1;fontSize=14;strokeWidth=3;fontStyle=1" edge="1" parent="1" source="2cb-5EpplbYAGcAZyKXE-2" target="2cb-5EpplbYAGcAZyKXE-63">
          <mxGeometry relative="1" as="geometry">
            <mxPoint x="280" y="300" as="targetPoint" />
          </mxGeometry>
        </mxCell>
        <mxCell id="2cb-5EpplbYAGcAZyKXE-2" value="Beecrowd" style="shape=cylinder3;whiteSpace=wrap;html=1;boundedLbl=1;backgroundOutline=1;size=15;fontSize=14;strokeWidth=3;fontStyle=1" vertex="1" parent="1">
          <mxGeometry x="80" y="240" width="120" height="120" as="geometry" />
        </mxCell>
        <mxCell id="2cb-5EpplbYAGcAZyKXE-49" style="edgeStyle=orthogonalEdgeStyle;rounded=0;orthogonalLoop=1;jettySize=auto;html=1;exitX=1;exitY=0.5;exitDx=0;exitDy=0;entryX=0.025;entryY=0.9;entryDx=0;entryDy=0;entryPerimeter=0;fontSize=14;strokeWidth=3;fontStyle=1" edge="1" parent="1" source="2cb-5EpplbYAGcAZyKXE-63" target="2cb-5EpplbYAGcAZyKXE-36">
          <mxGeometry relative="1" as="geometry">
            <mxPoint x="400" y="300" as="sourcePoint" />
          </mxGeometry>
        </mxCell>
        <mxCell id="2cb-5EpplbYAGcAZyKXE-5" value="Data Structuring&lt;div style=&quot;font-size: 14px;&quot;&gt;for Codeforces&lt;/div&gt;" style="rounded=1;whiteSpace=wrap;html=1;fontSize=14;strokeWidth=3;fontStyle=1;fillColor=#dae8fc;strokeColor=#6c8ebf;" vertex="1" parent="1">
          <mxGeometry x="260" y="95" width="160" height="90" as="geometry" />
        </mxCell>
        <mxCell id="2cb-5EpplbYAGcAZyKXE-9" value="Tab Data" style="shape=table;startSize=20;container=1;collapsible=0;childLayout=tableLayout;strokeColor=default;fontSize=14;strokeWidth=3;fontStyle=1" vertex="1" parent="1">
          <mxGeometry x="480" y="98" width="80" height="100" as="geometry" />
        </mxCell>
        <mxCell id="2cb-5EpplbYAGcAZyKXE-10" value="" style="shape=tableRow;horizontal=0;startSize=0;swimlaneHead=0;swimlaneBody=0;strokeColor=inherit;top=0;left=0;bottom=0;right=0;collapsible=0;dropTarget=0;fillColor=none;points=[[0,0.5],[1,0.5]];portConstraint=eastwest;fontSize=14;strokeWidth=3;fontStyle=1" vertex="1" parent="2cb-5EpplbYAGcAZyKXE-9">
          <mxGeometry y="20" width="80" height="20" as="geometry" />
        </mxCell>
        <mxCell id="2cb-5EpplbYAGcAZyKXE-11" value="" style="shape=partialRectangle;html=1;whiteSpace=wrap;connectable=0;strokeColor=inherit;overflow=hidden;fillColor=none;top=0;left=0;bottom=0;right=0;pointerEvents=1;fontSize=14;strokeWidth=3;fontStyle=1" vertex="1" parent="2cb-5EpplbYAGcAZyKXE-10">
          <mxGeometry width="27" height="20" as="geometry">
            <mxRectangle width="27" height="20" as="alternateBounds" />
          </mxGeometry>
        </mxCell>
        <mxCell id="2cb-5EpplbYAGcAZyKXE-12" value="" style="shape=partialRectangle;html=1;whiteSpace=wrap;connectable=0;strokeColor=inherit;overflow=hidden;fillColor=none;top=0;left=0;bottom=0;right=0;pointerEvents=1;fontSize=14;strokeWidth=3;fontStyle=1" vertex="1" parent="2cb-5EpplbYAGcAZyKXE-10">
          <mxGeometry x="27" width="26" height="20" as="geometry">
            <mxRectangle width="26" height="20" as="alternateBounds" />
          </mxGeometry>
        </mxCell>
        <mxCell id="2cb-5EpplbYAGcAZyKXE-13" value="" style="shape=partialRectangle;html=1;whiteSpace=wrap;connectable=0;strokeColor=inherit;overflow=hidden;fillColor=none;top=0;left=0;bottom=0;right=0;pointerEvents=1;fontSize=14;strokeWidth=3;fontStyle=1" vertex="1" parent="2cb-5EpplbYAGcAZyKXE-10">
          <mxGeometry x="53" width="27" height="20" as="geometry">
            <mxRectangle width="27" height="20" as="alternateBounds" />
          </mxGeometry>
        </mxCell>
        <mxCell id="2cb-5EpplbYAGcAZyKXE-14" value="" style="shape=tableRow;horizontal=0;startSize=0;swimlaneHead=0;swimlaneBody=0;strokeColor=inherit;top=0;left=0;bottom=0;right=0;collapsible=0;dropTarget=0;fillColor=none;points=[[0,0.5],[1,0.5]];portConstraint=eastwest;fontSize=14;strokeWidth=3;fontStyle=1" vertex="1" parent="2cb-5EpplbYAGcAZyKXE-9">
          <mxGeometry y="40" width="80" height="20" as="geometry" />
        </mxCell>
        <mxCell id="2cb-5EpplbYAGcAZyKXE-15" value="" style="shape=partialRectangle;html=1;whiteSpace=wrap;connectable=0;strokeColor=inherit;overflow=hidden;fillColor=none;top=0;left=0;bottom=0;right=0;pointerEvents=1;fontSize=14;strokeWidth=3;fontStyle=1" vertex="1" parent="2cb-5EpplbYAGcAZyKXE-14">
          <mxGeometry width="27" height="20" as="geometry">
            <mxRectangle width="27" height="20" as="alternateBounds" />
          </mxGeometry>
        </mxCell>
        <mxCell id="2cb-5EpplbYAGcAZyKXE-16" value="" style="shape=partialRectangle;html=1;whiteSpace=wrap;connectable=0;strokeColor=inherit;overflow=hidden;fillColor=none;top=0;left=0;bottom=0;right=0;pointerEvents=1;fontSize=14;strokeWidth=3;fontStyle=1" vertex="1" parent="2cb-5EpplbYAGcAZyKXE-14">
          <mxGeometry x="27" width="26" height="20" as="geometry">
            <mxRectangle width="26" height="20" as="alternateBounds" />
          </mxGeometry>
        </mxCell>
        <mxCell id="2cb-5EpplbYAGcAZyKXE-17" value="" style="shape=partialRectangle;html=1;whiteSpace=wrap;connectable=0;strokeColor=inherit;overflow=hidden;fillColor=none;top=0;left=0;bottom=0;right=0;pointerEvents=1;fontSize=14;strokeWidth=3;fontStyle=1" vertex="1" parent="2cb-5EpplbYAGcAZyKXE-14">
          <mxGeometry x="53" width="27" height="20" as="geometry">
            <mxRectangle width="27" height="20" as="alternateBounds" />
          </mxGeometry>
        </mxCell>
        <mxCell id="2cb-5EpplbYAGcAZyKXE-85" value="" style="shape=tableRow;horizontal=0;startSize=0;swimlaneHead=0;swimlaneBody=0;strokeColor=inherit;top=0;left=0;bottom=0;right=0;collapsible=0;dropTarget=0;fillColor=none;points=[[0,0.5],[1,0.5]];portConstraint=eastwest;fontSize=14;strokeWidth=3;fontStyle=1" vertex="1" parent="2cb-5EpplbYAGcAZyKXE-9">
          <mxGeometry y="60" width="80" height="20" as="geometry" />
        </mxCell>
        <mxCell id="2cb-5EpplbYAGcAZyKXE-86" value="" style="shape=partialRectangle;html=1;whiteSpace=wrap;connectable=0;strokeColor=inherit;overflow=hidden;fillColor=none;top=0;left=0;bottom=0;right=0;pointerEvents=1;fontSize=14;strokeWidth=3;fontStyle=1" vertex="1" parent="2cb-5EpplbYAGcAZyKXE-85">
          <mxGeometry width="27" height="20" as="geometry">
            <mxRectangle width="27" height="20" as="alternateBounds" />
          </mxGeometry>
        </mxCell>
        <mxCell id="2cb-5EpplbYAGcAZyKXE-87" value="" style="shape=partialRectangle;html=1;whiteSpace=wrap;connectable=0;strokeColor=inherit;overflow=hidden;fillColor=none;top=0;left=0;bottom=0;right=0;pointerEvents=1;fontSize=14;strokeWidth=3;fontStyle=1" vertex="1" parent="2cb-5EpplbYAGcAZyKXE-85">
          <mxGeometry x="27" width="26" height="20" as="geometry">
            <mxRectangle width="26" height="20" as="alternateBounds" />
          </mxGeometry>
        </mxCell>
        <mxCell id="2cb-5EpplbYAGcAZyKXE-88" value="" style="shape=partialRectangle;html=1;whiteSpace=wrap;connectable=0;strokeColor=inherit;overflow=hidden;fillColor=none;top=0;left=0;bottom=0;right=0;pointerEvents=1;fontSize=14;strokeWidth=3;fontStyle=1" vertex="1" parent="2cb-5EpplbYAGcAZyKXE-85">
          <mxGeometry x="53" width="27" height="20" as="geometry">
            <mxRectangle width="27" height="20" as="alternateBounds" />
          </mxGeometry>
        </mxCell>
        <mxCell id="2cb-5EpplbYAGcAZyKXE-18" value="" style="shape=tableRow;horizontal=0;startSize=0;swimlaneHead=0;swimlaneBody=0;strokeColor=inherit;top=0;left=0;bottom=0;right=0;collapsible=0;dropTarget=0;fillColor=none;points=[[0,0.5],[1,0.5]];portConstraint=eastwest;fontSize=14;strokeWidth=3;fontStyle=1" vertex="1" parent="2cb-5EpplbYAGcAZyKXE-9">
          <mxGeometry y="80" width="80" height="20" as="geometry" />
        </mxCell>
        <mxCell id="2cb-5EpplbYAGcAZyKXE-19" value="" style="shape=partialRectangle;html=1;whiteSpace=wrap;connectable=0;strokeColor=inherit;overflow=hidden;fillColor=none;top=0;left=0;bottom=0;right=0;pointerEvents=1;fontSize=14;strokeWidth=3;fontStyle=1" vertex="1" parent="2cb-5EpplbYAGcAZyKXE-18">
          <mxGeometry width="27" height="20" as="geometry">
            <mxRectangle width="27" height="20" as="alternateBounds" />
          </mxGeometry>
        </mxCell>
        <mxCell id="2cb-5EpplbYAGcAZyKXE-20" value="" style="shape=partialRectangle;html=1;whiteSpace=wrap;connectable=0;strokeColor=inherit;overflow=hidden;fillColor=none;top=0;left=0;bottom=0;right=0;pointerEvents=1;fontSize=14;strokeWidth=3;fontStyle=1" vertex="1" parent="2cb-5EpplbYAGcAZyKXE-18">
          <mxGeometry x="27" width="26" height="20" as="geometry">
            <mxRectangle width="26" height="20" as="alternateBounds" />
          </mxGeometry>
        </mxCell>
        <mxCell id="2cb-5EpplbYAGcAZyKXE-21" value="" style="shape=partialRectangle;html=1;whiteSpace=wrap;connectable=0;strokeColor=inherit;overflow=hidden;fillColor=none;top=0;left=0;bottom=0;right=0;pointerEvents=1;fontSize=14;strokeWidth=3;fontStyle=1" vertex="1" parent="2cb-5EpplbYAGcAZyKXE-18">
          <mxGeometry x="53" width="27" height="20" as="geometry">
            <mxRectangle width="27" height="20" as="alternateBounds" />
          </mxGeometry>
        </mxCell>
        <mxCell id="2cb-5EpplbYAGcAZyKXE-35" value="Tab Data" style="shape=table;startSize=20;container=1;collapsible=0;childLayout=tableLayout;strokeColor=default;fontSize=14;strokeWidth=3;fontStyle=1" vertex="1" parent="1">
          <mxGeometry x="480" y="262" width="80" height="80" as="geometry" />
        </mxCell>
        <mxCell id="2cb-5EpplbYAGcAZyKXE-36" value="" style="shape=tableRow;horizontal=0;startSize=0;swimlaneHead=0;swimlaneBody=0;strokeColor=inherit;top=0;left=0;bottom=0;right=0;collapsible=0;dropTarget=0;fillColor=none;points=[[0,0.5],[1,0.5]];portConstraint=eastwest;fontSize=14;strokeWidth=3;fontStyle=1" vertex="1" parent="2cb-5EpplbYAGcAZyKXE-35">
          <mxGeometry y="20" width="80" height="20" as="geometry" />
        </mxCell>
        <mxCell id="2cb-5EpplbYAGcAZyKXE-37" value="" style="shape=partialRectangle;html=1;whiteSpace=wrap;connectable=0;strokeColor=inherit;overflow=hidden;fillColor=none;top=0;left=0;bottom=0;right=0;pointerEvents=1;fontSize=14;strokeWidth=3;fontStyle=1" vertex="1" parent="2cb-5EpplbYAGcAZyKXE-36">
          <mxGeometry width="27" height="20" as="geometry">
            <mxRectangle width="27" height="20" as="alternateBounds" />
          </mxGeometry>
        </mxCell>
        <mxCell id="2cb-5EpplbYAGcAZyKXE-38" value="" style="shape=partialRectangle;html=1;whiteSpace=wrap;connectable=0;strokeColor=inherit;overflow=hidden;fillColor=none;top=0;left=0;bottom=0;right=0;pointerEvents=1;fontSize=14;strokeWidth=3;fontStyle=1" vertex="1" parent="2cb-5EpplbYAGcAZyKXE-36">
          <mxGeometry x="27" width="26" height="20" as="geometry">
            <mxRectangle width="26" height="20" as="alternateBounds" />
          </mxGeometry>
        </mxCell>
        <mxCell id="2cb-5EpplbYAGcAZyKXE-39" value="" style="shape=partialRectangle;html=1;whiteSpace=wrap;connectable=0;strokeColor=inherit;overflow=hidden;fillColor=none;top=0;left=0;bottom=0;right=0;pointerEvents=1;fontSize=14;strokeWidth=3;fontStyle=1" vertex="1" parent="2cb-5EpplbYAGcAZyKXE-36">
          <mxGeometry x="53" width="27" height="20" as="geometry">
            <mxRectangle width="27" height="20" as="alternateBounds" />
          </mxGeometry>
        </mxCell>
        <mxCell id="2cb-5EpplbYAGcAZyKXE-40" value="" style="shape=tableRow;horizontal=0;startSize=0;swimlaneHead=0;swimlaneBody=0;strokeColor=inherit;top=0;left=0;bottom=0;right=0;collapsible=0;dropTarget=0;fillColor=none;points=[[0,0.5],[1,0.5]];portConstraint=eastwest;fontSize=14;strokeWidth=3;fontStyle=1" vertex="1" parent="2cb-5EpplbYAGcAZyKXE-35">
          <mxGeometry y="40" width="80" height="20" as="geometry" />
        </mxCell>
        <mxCell id="2cb-5EpplbYAGcAZyKXE-41" value="" style="shape=partialRectangle;html=1;whiteSpace=wrap;connectable=0;strokeColor=inherit;overflow=hidden;fillColor=none;top=0;left=0;bottom=0;right=0;pointerEvents=1;fontSize=14;strokeWidth=3;fontStyle=1" vertex="1" parent="2cb-5EpplbYAGcAZyKXE-40">
          <mxGeometry width="27" height="20" as="geometry">
            <mxRectangle width="27" height="20" as="alternateBounds" />
          </mxGeometry>
        </mxCell>
        <mxCell id="2cb-5EpplbYAGcAZyKXE-42" value="" style="shape=partialRectangle;html=1;whiteSpace=wrap;connectable=0;strokeColor=inherit;overflow=hidden;fillColor=none;top=0;left=0;bottom=0;right=0;pointerEvents=1;fontSize=14;strokeWidth=3;fontStyle=1" vertex="1" parent="2cb-5EpplbYAGcAZyKXE-40">
          <mxGeometry x="27" width="26" height="20" as="geometry">
            <mxRectangle width="26" height="20" as="alternateBounds" />
          </mxGeometry>
        </mxCell>
        <mxCell id="2cb-5EpplbYAGcAZyKXE-43" value="" style="shape=partialRectangle;html=1;whiteSpace=wrap;connectable=0;strokeColor=inherit;overflow=hidden;fillColor=none;top=0;left=0;bottom=0;right=0;pointerEvents=1;fontSize=14;strokeWidth=3;fontStyle=1" vertex="1" parent="2cb-5EpplbYAGcAZyKXE-40">
          <mxGeometry x="53" width="27" height="20" as="geometry">
            <mxRectangle width="27" height="20" as="alternateBounds" />
          </mxGeometry>
        </mxCell>
        <mxCell id="2cb-5EpplbYAGcAZyKXE-44" value="" style="shape=tableRow;horizontal=0;startSize=0;swimlaneHead=0;swimlaneBody=0;strokeColor=inherit;top=0;left=0;bottom=0;right=0;collapsible=0;dropTarget=0;fillColor=none;points=[[0,0.5],[1,0.5]];portConstraint=eastwest;fontSize=14;strokeWidth=3;fontStyle=1" vertex="1" parent="2cb-5EpplbYAGcAZyKXE-35">
          <mxGeometry y="60" width="80" height="20" as="geometry" />
        </mxCell>
        <mxCell id="2cb-5EpplbYAGcAZyKXE-45" value="" style="shape=partialRectangle;html=1;whiteSpace=wrap;connectable=0;strokeColor=inherit;overflow=hidden;fillColor=none;top=0;left=0;bottom=0;right=0;pointerEvents=1;fontSize=14;strokeWidth=3;fontStyle=1" vertex="1" parent="2cb-5EpplbYAGcAZyKXE-44">
          <mxGeometry width="27" height="20" as="geometry">
            <mxRectangle width="27" height="20" as="alternateBounds" />
          </mxGeometry>
        </mxCell>
        <mxCell id="2cb-5EpplbYAGcAZyKXE-46" value="" style="shape=partialRectangle;html=1;whiteSpace=wrap;connectable=0;strokeColor=inherit;overflow=hidden;fillColor=none;top=0;left=0;bottom=0;right=0;pointerEvents=1;fontSize=14;strokeWidth=3;fontStyle=1" vertex="1" parent="2cb-5EpplbYAGcAZyKXE-44">
          <mxGeometry x="27" width="26" height="20" as="geometry">
            <mxRectangle width="26" height="20" as="alternateBounds" />
          </mxGeometry>
        </mxCell>
        <mxCell id="2cb-5EpplbYAGcAZyKXE-47" value="" style="shape=partialRectangle;html=1;whiteSpace=wrap;connectable=0;strokeColor=inherit;overflow=hidden;fillColor=none;top=0;left=0;bottom=0;right=0;pointerEvents=1;fontSize=14;strokeWidth=3;fontStyle=1" vertex="1" parent="2cb-5EpplbYAGcAZyKXE-44">
          <mxGeometry x="53" width="27" height="20" as="geometry">
            <mxRectangle width="27" height="20" as="alternateBounds" />
          </mxGeometry>
        </mxCell>
        <mxCell id="2cb-5EpplbYAGcAZyKXE-48" style="edgeStyle=orthogonalEdgeStyle;rounded=0;orthogonalLoop=1;jettySize=auto;html=1;entryX=-0.025;entryY=0.1;entryDx=0;entryDy=0;entryPerimeter=0;exitX=1;exitY=0.5;exitDx=0;exitDy=0;fontSize=14;strokeWidth=3;fontStyle=1" edge="1" parent="1" source="2cb-5EpplbYAGcAZyKXE-5" target="2cb-5EpplbYAGcAZyKXE-14">
          <mxGeometry relative="1" as="geometry" />
        </mxCell>
        <mxCell id="2cb-5EpplbYAGcAZyKXE-63" value="Data Structuring&lt;div style=&quot;font-size: 14px;&quot;&gt;for Beecrowd&lt;/div&gt;" style="rounded=1;whiteSpace=wrap;html=1;fontSize=14;strokeWidth=3;fontStyle=1;fillColor=#d5e8d4;strokeColor=#82b366;" vertex="1" parent="1">
          <mxGeometry x="260" y="255" width="160" height="90" as="geometry" />
        </mxCell>
        <mxCell id="2cb-5EpplbYAGcAZyKXE-64" value="Visualization for tracking progress alongside performance" style="rounded=1;whiteSpace=wrap;html=1;strokeWidth=3;fontStyle=1;fontSize=14;fillColor=#ffe6cc;strokeColor=#d79b00;" vertex="1" parent="1">
          <mxGeometry x="660" y="10" width="160" height="90" as="geometry" />
        </mxCell>
        <mxCell id="2cb-5EpplbYAGcAZyKXE-65" value="Multiple files" style="text;html=1;align=center;verticalAlign=middle;whiteSpace=wrap;rounded=0;fontSize=14;strokeWidth=3;fontStyle=1" vertex="1" parent="1">
          <mxGeometry x="460" y="10" width="120" height="30" as="geometry" />
        </mxCell>
        <mxCell id="2cb-5EpplbYAGcAZyKXE-66" value="" style="shape=curlyBracket;whiteSpace=wrap;html=1;rounded=1;flipH=1;labelPosition=right;verticalLabelPosition=middle;align=left;verticalAlign=middle;rotation=-90;strokeWidth=3;fontStyle=1;fontSize=14;" vertex="1" parent="1">
          <mxGeometry x="510" y="-10" width="20" height="120" as="geometry" />
        </mxCell>
        <mxCell id="2cb-5EpplbYAGcAZyKXE-67" value="Identifying profiles of students regarding performance" style="rounded=1;whiteSpace=wrap;html=1;strokeWidth=3;fontStyle=1;fontSize=14;fillColor=#ffe6cc;strokeColor=#d79b00;" vertex="1" parent="1">
          <mxGeometry x="720" y="172" width="160" height="90" as="geometry" />
        </mxCell>
        <mxCell id="2cb-5EpplbYAGcAZyKXE-70" value="Beginners" style="text;html=1;align=center;verticalAlign=middle;whiteSpace=wrap;rounded=0;fontSize=14;strokeWidth=3;fontStyle=1" vertex="1" parent="1">
          <mxGeometry x="80" y="390" width="120" height="30" as="geometry" />
        </mxCell>
        <mxCell id="2cb-5EpplbYAGcAZyKXE-71" value="" style="shape=curlyBracket;whiteSpace=wrap;html=1;rounded=1;flipH=1;labelPosition=right;verticalLabelPosition=middle;align=left;verticalAlign=middle;rotation=89;strokeWidth=3;fontStyle=1;fontSize=14;" vertex="1" parent="1">
          <mxGeometry x="130" y="320" width="20" height="120" as="geometry" />
        </mxCell>
        <mxCell id="2cb-5EpplbYAGcAZyKXE-74" value="Mature" style="text;html=1;align=center;verticalAlign=middle;whiteSpace=wrap;rounded=0;fontSize=14;strokeWidth=3;fontStyle=1" vertex="1" parent="1">
          <mxGeometry x="80" y="20" width="120" height="30" as="geometry" />
        </mxCell>
        <mxCell id="2cb-5EpplbYAGcAZyKXE-75" value="" style="shape=curlyBracket;whiteSpace=wrap;html=1;rounded=1;flipH=1;labelPosition=right;verticalLabelPosition=middle;align=left;verticalAlign=middle;rotation=-90;strokeWidth=3;fontStyle=1;fontSize=14;" vertex="1" parent="1">
          <mxGeometry x="130" width="20" height="120" as="geometry" />
        </mxCell>
        <mxCell id="2cb-5EpplbYAGcAZyKXE-76" value="" style="endArrow=classic;html=1;rounded=0;exitX=1;exitY=0.5;exitDx=0;exitDy=0;entryX=0;entryY=0.5;entryDx=0;entryDy=0;strokeWidth=3;fontStyle=1;fontSize=14;" edge="1" parent="1" source="2cb-5EpplbYAGcAZyKXE-10" target="2cb-5EpplbYAGcAZyKXE-64">
          <mxGeometry width="50" height="50" relative="1" as="geometry">
            <mxPoint x="400" y="310" as="sourcePoint" />
            <mxPoint x="450" y="260" as="targetPoint" />
          </mxGeometry>
        </mxCell>
        <mxCell id="2cb-5EpplbYAGcAZyKXE-77" value="" style="endArrow=classic;html=1;rounded=0;exitX=1;exitY=0.5;exitDx=0;exitDy=0;entryX=0;entryY=0.5;entryDx=0;entryDy=0;strokeWidth=3;fontStyle=1;fontSize=14;" edge="1" parent="1" source="2cb-5EpplbYAGcAZyKXE-36" target="2cb-5EpplbYAGcAZyKXE-64">
          <mxGeometry width="50" height="50" relative="1" as="geometry">
            <mxPoint x="570" y="138" as="sourcePoint" />
            <mxPoint x="670" y="65" as="targetPoint" />
          </mxGeometry>
        </mxCell>
        <mxCell id="2cb-5EpplbYAGcAZyKXE-78" value="Visualization Design and Interactive Exploration Processes" style="text;html=1;align=center;verticalAlign=middle;whiteSpace=wrap;rounded=0;fontSize=14;strokeWidth=3;fontStyle=1" vertex="1" parent="1">
          <mxGeometry x="635" y="440" width="250" height="30" as="geometry" />
        </mxCell>
        <mxCell id="2cb-5EpplbYAGcAZyKXE-79" value="" style="shape=curlyBracket;whiteSpace=wrap;html=1;rounded=1;flipH=1;labelPosition=right;verticalLabelPosition=middle;align=left;verticalAlign=middle;rotation=90;strokeWidth=3;fontStyle=1;fontSize=14;" vertex="1" parent="1">
          <mxGeometry x="750" y="290" width="20" height="240" as="geometry" />
        </mxCell>
        <mxCell id="2cb-5EpplbYAGcAZyKXE-81" value="" style="endArrow=classic;html=1;rounded=0;exitX=1;exitY=0.5;exitDx=0;exitDy=0;entryX=0;entryY=0.5;entryDx=0;entryDy=0;strokeWidth=3;fontStyle=1;fontSize=14;" edge="1" parent="1" source="2cb-5EpplbYAGcAZyKXE-10" target="2cb-5EpplbYAGcAZyKXE-67">
          <mxGeometry width="50" height="50" relative="1" as="geometry">
            <mxPoint x="570" y="138" as="sourcePoint" />
            <mxPoint x="670" y="65" as="targetPoint" />
          </mxGeometry>
        </mxCell>
        <mxCell id="2cb-5EpplbYAGcAZyKXE-82" value="" style="endArrow=classic;html=1;rounded=0;exitX=1;exitY=0.5;exitDx=0;exitDy=0;entryX=0;entryY=0.5;entryDx=0;entryDy=0;strokeWidth=3;fontStyle=1;fontSize=14;" edge="1" parent="1" source="2cb-5EpplbYAGcAZyKXE-36" target="2cb-5EpplbYAGcAZyKXE-67">
          <mxGeometry width="50" height="50" relative="1" as="geometry">
            <mxPoint x="580" y="148" as="sourcePoint" />
            <mxPoint x="680" y="75" as="targetPoint" />
          </mxGeometry>
        </mxCell>
        <mxCell id="2cb-5EpplbYAGcAZyKXE-84" value="Visualizing strengths and weaknesses of&amp;nbsp;&lt;div&gt;students regarding&lt;/div&gt;&lt;div&gt;problems&#39; topics&lt;/div&gt;" style="rounded=1;whiteSpace=wrap;html=1;strokeWidth=3;fontStyle=1;fontSize=14;fillColor=#ffe6cc;strokeColor=#d79b00;" vertex="1" parent="1">
          <mxGeometry x="680" y="300" width="160" height="90" as="geometry" />
        </mxCell>
        <mxCell id="2cb-5EpplbYAGcAZyKXE-89" value="" style="endArrow=classic;html=1;rounded=0;entryX=0;entryY=0.5;entryDx=0;entryDy=0;strokeWidth=3;fontStyle=1;fontSize=14;" edge="1" parent="1" target="2cb-5EpplbYAGcAZyKXE-84">
          <mxGeometry width="50" height="50" relative="1" as="geometry">
            <mxPoint x="560" y="130" as="sourcePoint" />
            <mxPoint x="730" y="227" as="targetPoint" />
          </mxGeometry>
        </mxCell>
        <mxCell id="2cb-5EpplbYAGcAZyKXE-90" value="" style="endArrow=classic;html=1;rounded=0;entryX=0;entryY=0.5;entryDx=0;entryDy=0;strokeWidth=3;fontStyle=1;fontSize=14;" edge="1" parent="1" target="2cb-5EpplbYAGcAZyKXE-84">
          <mxGeometry width="50" height="50" relative="1" as="geometry">
            <mxPoint x="560" y="290" as="sourcePoint" />
            <mxPoint x="690" y="355" as="targetPoint" />
          </mxGeometry>
        </mxCell>
        <mxCell id="2cb-5EpplbYAGcAZyKXE-92" value="User Evaluation" style="rounded=1;whiteSpace=wrap;html=1;strokeWidth=3;fontStyle=1;fontSize=14;fillColor=#e1d5e7;strokeColor=#9673a6;" vertex="1" parent="1">
          <mxGeometry x="1370" y="170" width="160" height="90" as="geometry" />
        </mxCell>
        <mxCell id="2cb-5EpplbYAGcAZyKXE-103" style="edgeStyle=orthogonalEdgeStyle;rounded=0;orthogonalLoop=1;jettySize=auto;html=1;exitX=1;exitY=0.5;exitDx=0;exitDy=0;entryX=0;entryY=0.5;entryDx=0;entryDy=0;strokeWidth=3;" edge="1" parent="1" source="2cb-5EpplbYAGcAZyKXE-93" target="2cb-5EpplbYAGcAZyKXE-92">
          <mxGeometry relative="1" as="geometry" />
        </mxCell>
        <mxCell id="2cb-5EpplbYAGcAZyKXE-93" value="Web System Development" style="rounded=1;whiteSpace=wrap;html=1;strokeWidth=3;fontStyle=1;fontSize=14;fillColor=#e1d5e7;strokeColor=#9673a6;" vertex="1" parent="1">
          <mxGeometry x="1150" y="170" width="160" height="90" as="geometry" />
        </mxCell>
        <mxCell id="2cb-5EpplbYAGcAZyKXE-94" value="" style="endArrow=classic;html=1;rounded=0;exitX=1;exitY=0.5;exitDx=0;exitDy=0;entryX=0;entryY=0.5;entryDx=0;entryDy=0;strokeWidth=3;fontStyle=1;fontSize=14;" edge="1" parent="1" source="2cb-5EpplbYAGcAZyKXE-64" target="2cb-5EpplbYAGcAZyKXE-97">
          <mxGeometry width="50" height="50" relative="1" as="geometry">
            <mxPoint x="570" y="138" as="sourcePoint" />
            <mxPoint x="670" y="65" as="targetPoint" />
          </mxGeometry>
        </mxCell>
        <mxCell id="2cb-5EpplbYAGcAZyKXE-95" value="" style="endArrow=classic;html=1;rounded=0;exitX=1;exitY=0.5;exitDx=0;exitDy=0;entryX=0;entryY=0.5;entryDx=0;entryDy=0;strokeWidth=3;fontStyle=1;fontSize=14;" edge="1" parent="1" source="2cb-5EpplbYAGcAZyKXE-67" target="2cb-5EpplbYAGcAZyKXE-98">
          <mxGeometry width="50" height="50" relative="1" as="geometry">
            <mxPoint x="830" y="65" as="sourcePoint" />
            <mxPoint x="970" y="227" as="targetPoint" />
          </mxGeometry>
        </mxCell>
        <mxCell id="2cb-5EpplbYAGcAZyKXE-96" value="" style="endArrow=classic;html=1;rounded=0;exitX=1;exitY=0.5;exitDx=0;exitDy=0;entryX=0;entryY=0.5;entryDx=0;entryDy=0;strokeWidth=3;fontStyle=1;fontSize=14;" edge="1" parent="1" source="2cb-5EpplbYAGcAZyKXE-84" target="2cb-5EpplbYAGcAZyKXE-99">
          <mxGeometry width="50" height="50" relative="1" as="geometry">
            <mxPoint x="840" y="75" as="sourcePoint" />
            <mxPoint x="980" y="237" as="targetPoint" />
          </mxGeometry>
        </mxCell>
        <mxCell id="2cb-5EpplbYAGcAZyKXE-100" style="edgeStyle=orthogonalEdgeStyle;rounded=0;orthogonalLoop=1;jettySize=auto;html=1;exitX=1;exitY=0.5;exitDx=0;exitDy=0;entryX=0;entryY=0.25;entryDx=0;entryDy=0;strokeWidth=3;" edge="1" parent="1" source="2cb-5EpplbYAGcAZyKXE-97" target="2cb-5EpplbYAGcAZyKXE-93">
          <mxGeometry relative="1" as="geometry" />
        </mxCell>
        <mxCell id="2cb-5EpplbYAGcAZyKXE-97" value="" style="ellipse;whiteSpace=wrap;html=1;strokeWidth=2;fillWeight=2;hachureGap=8;fillColor=#990000;fillStyle=dots;sketch=1;" vertex="1" parent="1">
          <mxGeometry x="950" y="95" width="120" height="60" as="geometry" />
        </mxCell>
        <mxCell id="2cb-5EpplbYAGcAZyKXE-101" style="edgeStyle=orthogonalEdgeStyle;rounded=0;orthogonalLoop=1;jettySize=auto;html=1;exitX=1;exitY=0.5;exitDx=0;exitDy=0;strokeWidth=3;" edge="1" parent="1" source="2cb-5EpplbYAGcAZyKXE-98" target="2cb-5EpplbYAGcAZyKXE-93">
          <mxGeometry relative="1" as="geometry" />
        </mxCell>
        <mxCell id="2cb-5EpplbYAGcAZyKXE-98" value="" style="rounded=1;whiteSpace=wrap;html=1;strokeWidth=2;fillWeight=4;hachureGap=8;hachureAngle=45;fillColor=#1ba1e2;sketch=1;" vertex="1" parent="1">
          <mxGeometry x="950" y="185" width="120" height="60" as="geometry" />
        </mxCell>
        <mxCell id="2cb-5EpplbYAGcAZyKXE-102" style="edgeStyle=orthogonalEdgeStyle;rounded=0;orthogonalLoop=1;jettySize=auto;html=1;entryX=0;entryY=0.75;entryDx=0;entryDy=0;strokeWidth=3;" edge="1" parent="1" source="2cb-5EpplbYAGcAZyKXE-99" target="2cb-5EpplbYAGcAZyKXE-93">
          <mxGeometry relative="1" as="geometry" />
        </mxCell>
        <mxCell id="2cb-5EpplbYAGcAZyKXE-99" value="" style="rhombus;whiteSpace=wrap;html=1;strokeWidth=2;fillWeight=-1;hachureGap=8;fillStyle=cross-hatch;fillColor=#006600;sketch=1;" vertex="1" parent="1">
          <mxGeometry x="950" y="272" width="120" height="60" as="geometry" />
        </mxCell>
      </root>
    </mxGraphModel>
  </diagram>
</mxfile>
